<?xml version="1.0" encoding="utf-8"?>
<!-- Generator: Adobe Illustrator 20.1.0, SVG Export Plug-In . SVG Version: 6.00 Build 0)  -->
<svg version="1.1" id="Layer_1" xmlns="http://www.w3.org/2000/svg" xmlns:xlink="http://www.w3.org/1999/xlink" x="0px" y="0px"
	 viewBox="0 0 1500 500" style="enable-background:new 0 0 1500 500;" xml:space="preserve">
<style type="text/css">
	.st0{fill:#8A28FC;}
	.st1{fill:#FFFFFF;}
	.st2{fill:#FFE000;}
	.st3{fill:none;}
	.st4{font-family:'Karla-Bold';}
	.st5{font-size:82px;}
</style>
<rect x="-1052.4" y="-187.4" class="st0" width="874.9" height="874.9"/>
<rect x="-32.4" y="-187.4" class="st0" width="1559.1" height="874.9"/>
<g id="Group_12" transform="translate(-15180.523 -2069)">
	<g id="XMLID_13_">
		<path id="XMLID_14_" class="st1" d="M-780,901.1h73.8c38.9,0,64,29.4,64,63.5c0,24.6-13,46.4-34.9,56.8l35.1,55.5h-47.2
			l-31.1-48.7h-19.1v48.7H-780V901.1z M-683.4,964.7c0-16.3-11-30.3-28.1-30.3h-27.8v60.8h27.9C-694.4,995-683.4,981-683.4,964.7z"
			/>
	</g>
	<g id="XMLID_1_" transform="translate(0 219.689)">
		<path id="XMLID_11_" class="st1" d="M-739.3,933.8v39.9h66.5v31.9h-66.5v38.7h66.5v32.6H-780V901.1h107.2v32.6h-66.5V933.8z"/>
		<path id="XMLID_9_" class="st1" d="M-601.3,936.3h-39.6v-35.1h120.2v35.1h-39.9v140.6h-40.7V936.3z"/>
		<path id="XMLID_7_" class="st1" d="M-490.2,901.1h40.7v115.5c0,16.1,11,29.6,27.6,29.6s27.9-13.5,27.9-29.6V901.1h40.7v115.7
			c0,36.1-26.3,64.5-68.5,64.5c-41.9,0-68.3-28.4-68.3-64.5V901.1H-490.2z"/>
		<path id="XMLID_4_" class="st1" d="M-317,901.1h73.8c38.9,0,64,29.4,64,63.5c0,24.6-13,46.4-34.9,56.8l35.1,55.5h-47.2l-31.1-48.7
			h-19.1v48.7h-40.7L-317,901.1L-317,901.1z M-220.4,964.7c0-16.3-11-30.3-28.1-30.3h-27.9v60.8h27.9
			C-231.5,995-220.4,981-220.4,964.7z"/>
		<path id="XMLID_2_" class="st1" d="M-41.5,1015.6V901.1h40.4v175.7h-42.4l-63.3-113v113h-40.7V901.1h42.4L-41.5,1015.6z"/>
	</g>
	<path id="Union_2" class="st2" d="M-490.2,1061.7v-38.1h-100v-40.3h100l0,0h40.3v78.4H-490.2z"/>
</g>
<g id="Group_12_1_" transform="translate(-15180.523 -2069)">
	<g id="XMLID_15_">
		<path id="XMLID_16_" class="st1" d="M14402,2972.1h73.8c38.9,0,64,29.4,64,63.5c0,24.6-13.1,46.4-34.9,56.8l35.1,55.5h-47.2
			l-31.1-48.7h-19.1v48.7h-40.6V2972.1z M14498.6,3035.7c0-16.3-11-30.3-28.1-30.3h-27.8v60.8h27.9
			C14487.6,3066,14498.6,3052,14498.6,3035.7z"/>
	</g>
	<g id="XMLID_3_" transform="translate(0 219.689)">
		<path id="XMLID_12_" class="st1" d="M14442.7,3004.8v39.9h66.5v31.9h-66.5v38.7h66.5v32.6H14402v-175.7h107.2v32.6H14442.7z"/>
		<path id="XMLID_10_" class="st1" d="M14580.7,3007.3h-39.6v-35.1h120.2v35.1h-39.9v140.6h-40.7V3007.3z"/>
		<path id="XMLID_8_" class="st1" d="M14691.8,2972.1h40.7v115.5c0,16.1,11,29.6,27.6,29.6s27.9-13.5,27.9-29.6v-115.5h40.7v115.7
			c0,36.1-26.3,64.5-68.5,64.5c-41.9,0-68.3-28.4-68.3-64.5v-115.7H14691.8z"/>
		<path id="XMLID_6_" class="st1" d="M14865,2972.1h73.8c38.9,0,64,29.4,64,63.5c0,24.6-13,46.4-34.9,56.8l35.1,55.5h-47.2
			l-31.1-48.7h-19.1v48.7h-40.7L14865,2972.1L14865,2972.1z M14961.6,3035.7c0-16.3-11-30.3-28.1-30.3h-27.9v60.8h27.9
			C14950.5,3066,14961.6,3052,14961.6,3035.7z"/>
		<path id="XMLID_5_" class="st1" d="M15140.5,3086.6v-114.4h40.4v175.7h-42.4l-63.3-113v113h-40.7v-175.7h42.4L15140.5,3086.6z"/>
	</g>
	<path id="Union_2_1_" class="st2" d="M14691.8,3114.1V3076h-100v-40.3h100l0,0h40.3v78.4L14691.8,3114.1L14691.8,3114.1z"/>
</g>
<g>
	<g id="XMLID_19_">
		<path id="XMLID_20_" class="st1" d="M-780,162.1h73.8c38.9,0,64,29.4,64,63.5c0,24.6-13.1,46.4-34.9,56.8l35.1,55.5h-47.2
			l-31.1-48.7h-19.1v48.7H-780V162.1z M-683.4,225.7c0-16.3-11-30.3-28.1-30.3h-27.8v60.8h27.9C-694.4,256-683.4,242-683.4,225.7z"
			/>
	</g>
	<path id="Union_2_3_" class="st2" d="M-490.2,304.1V266h-100v-40.3h100l0,0h40.3v78.4H-490.2z"/>
</g>
<image style="overflow:visible;enable-background:new    ;" width="1441" height="1452" xlink:href="handle-g-blur.png"  transform="matrix(0.6122 6.333140e-02 -6.333140e-02 0.6122 369.1853 -157.5483)">
</image>
<image style="overflow:visible;enable-background:new    ;" width="407" height="603" xlink:href="handle-y-blur.png"  transform="matrix(0.8082 0.2994 -0.2994 0.8082 211.3436 -172.4541)">
</image>
<image style="overflow:visible;enable-background:new    ;" width="448" height="585" xlink:href="handle-o.png"  transform="matrix(1 0 0 1 316.2661 698.5)">
</image>
<image style="overflow:visible;enable-background:new    ;" width="640" height="777" xlink:href="handle-o-blur.png"  transform="matrix(0.6565 0 0 0.6565 1134.868 -59.7336)">
</image>
<rect x="333" y="167.5" class="st3" width="834.1" height="165"/>
<text transform="matrix(1 0 0 1 510.8911 223.7425)" class="st1 st4 st5">Achieve your </text>
<text transform="matrix(1 0 0 1 565.5911 312.1425)" class="st1 st4 st5">optimum.</text>
</svg>
