<?xml version="1.0" encoding="utf-8"?>
<!-- Generator: Adobe Illustrator 20.1.0, SVG Export Plug-In . SVG Version: 6.00 Build 0)  -->
<svg version="1.1" id="Layer_1" xmlns="http://www.w3.org/2000/svg" xmlns:xlink="http://www.w3.org/1999/xlink" x="0px" y="0px"
	 viewBox="0 0 778.9 399.9" style="enable-background:new 0 0 778.9 399.9;" xml:space="preserve">
<style type="text/css">
	.st0{fill:#FFFFFF;}
	.st1{fill:#FFE000;}
</style>
<g id="Group_12" transform="translate(-15180.523 -2069)">
	<g id="XMLID_13_">
		<path id="XMLID_14_" class="st0" d="M-1.5-2h73.8c38.9,0,64,29.4,64,63.5c0,24.6-13,46.4-34.9,56.8l35.1,55.5H89.3l-31.1-48.7
			H39.1v48.7H-1.5V-2z M95.1,61.6c0-16.3-11-30.3-28.1-30.3H39.2v60.8h27.9C84.1,91.9,95.1,77.9,95.1,61.6z"/>
	</g>
	<g id="XMLID_1_" transform="translate(0 219.689)">
		<path id="XMLID_11_" class="st0" d="M39.2,30.7v39.9h66.5v31.9H39.2v38.7h66.5v32.6H-1.5V-2h107.2v32.6H39.2V30.7z"/>
		<path id="XMLID_9_" class="st0" d="M177.2,33.2h-39.6V-1.9h120.2v35.1h-39.9v140.6h-40.7V33.2z"/>
		<path id="XMLID_7_" class="st0" d="M288.3-2H329v115.5c0,16.1,11,29.6,27.6,29.6s27.9-13.5,27.9-29.6V-2h40.7v115.7
			c0,36.1-26.3,64.5-68.5,64.5c-41.9,0-68.3-28.4-68.3-64.5V-2H288.3z"/>
		<path id="XMLID_4_" class="st0" d="M461.5-2h73.8c38.9,0,64,29.4,64,63.5c0,24.6-13,46.4-34.9,56.8l35.1,55.5h-47.2l-31.1-48.7
			h-19.1v48.7h-40.7L461.5-2L461.5-2z M558.1,61.6c0-16.3-11-30.3-28.1-30.3h-27.9v60.8H530C547,91.9,558.1,77.9,558.1,61.6z"/>
		<path id="XMLID_2_" class="st0" d="M737,112.5V-2h40.4v175.7H735l-63.3-113v113H631V-2h42.4L737,112.5z"/>
	</g>
	<path id="Union_2" class="st1" d="M288.3,158.6v-38.1h-100V80.2h100l0,0h40.3v78.4H288.3z"/>
</g>
<g id="Group_12_1_" transform="translate(-15180.523 -2069)">
	<g id="XMLID_15_">
		<path id="XMLID_16_" class="st0" d="M15180.5,2069h73.8c38.9,0,64,29.4,64,63.5c0,24.6-13.1,46.4-34.9,56.8l35.1,55.5h-47.2
			l-31.1-48.7h-19.1v48.7h-40.6V2069z M15277.1,2132.6c0-16.3-11-30.3-28.1-30.3h-27.8v60.8h27.9
			C15266.1,2162.9,15277.1,2148.9,15277.1,2132.6z"/>
	</g>
	<g id="XMLID_3_" transform="translate(0 219.689)">
		<path id="XMLID_12_" class="st0" d="M15221.2,2101.7v39.9h66.5v31.9h-66.5v38.7h66.5v32.6h-107.2v-175.7h107.2v32.6H15221.2z"/>
		<path id="XMLID_10_" class="st0" d="M15359.2,2104.2h-39.6v-35.1h120.2v35.1h-39.9v140.6h-40.7V2104.2z"/>
		<path id="XMLID_8_" class="st0" d="M15470.3,2069h40.7v115.5c0,16.1,11,29.6,27.6,29.6s27.9-13.5,27.9-29.6V2069h40.7v115.7
			c0,36.1-26.3,64.5-68.5,64.5c-41.9,0-68.3-28.4-68.3-64.5V2069H15470.3z"/>
		<path id="XMLID_6_" class="st0" d="M15643.5,2069h73.8c38.9,0,64,29.4,64,63.5c0,24.6-13,46.4-34.9,56.8l35.1,55.5h-47.2
			l-31.1-48.7h-19.1v48.7h-40.7L15643.5,2069L15643.5,2069z M15740.1,2132.6c0-16.3-11-30.3-28.1-30.3h-27.9v60.8h27.9
			C15729,2162.9,15740.1,2148.9,15740.1,2132.6z"/>
		<path id="XMLID_5_" class="st0" d="M15919,2183.5v-114.4h40.4v175.7h-42.4l-63.3-113v113h-40.7v-175.7h42.4L15919,2183.5z"/>
	</g>
	<path id="Union_2_1_" class="st1" d="M15470.3,2211v-38.1h-100v-40.3h100l0,0h40.3v78.4L15470.3,2211L15470.3,2211z"/>
</g>
</svg>
