<?xml version="1.0" encoding="utf-8"?>
<!-- Generator: Adobe Illustrator 24.1.3, SVG Export Plug-In . SVG Version: 6.00 Build 0)  -->
<svg version="1.1" id="Layer_1" xmlns="http://www.w3.org/2000/svg" xmlns:xlink="http://www.w3.org/1999/xlink" x="0px" y="0px"
	 viewBox="0 0 301 287" style="enable-background:new 0 0 301 287;" xml:space="preserve">
<style type="text/css">
	.st0{fill:#FFFFFF;}
	.st1{fill:#8A28FC;}
	.st2{fill:#2AEBD5;}
</style>
<g id="Group_25" transform="translate(-14194 -2322)">
	<g id="Rectangle_61">
		<rect x="14194" y="2322" class="st0" width="301" height="287"/>
	</g>
	<g id="Group_18" transform="translate(18 11.065)">
		<g id="Rectangle_47" transform="translate(295 2237)">
			<g>
				<path class="st0" d="M13939,157h185c2.8,0,5,2.2,5,5v109.9c0,2.8-2.2,5-5,5h-185c-2.8,0-5-2.2-5-5V162
					C13934,159.2,13936.2,157,13939,157z"/>
			</g>
			<g>
				<path class="st1" d="M14124,276.9h-185c-2.8,0-5-2.2-5-5V162c0-2.8,2.2-5,5-5h185c2.8,0,5,2.2,5,5v109.9
					C14129,274.6,14126.8,276.9,14124,276.9z M13939,162L13939,162v109.9h185V162H13939z"/>
			</g>
		</g>
		<g id="Rectangle_48" transform="translate(333.831 2251.351)">
			<g>
				<path class="st0" d="M13939,157h107.3c2.8,0,5,2.2,5,5v81.2c0,2.8-2.2,5-5,5H13939c-2.8,0-5-2.2-5-5V162
					C13934,159.2,13936.2,157,13939,157z"/>
			</g>
			<g>
				<path class="st2" d="M14046.3,248.2H13939c-2.8,0-5-2.2-5-5V162c0-2.8,2.2-5,5-5h107.3c2.8,0,5,2.2,5,5v81.2
					C14051.3,245.9,14049.1,248.2,14046.3,248.2z M13939,162L13939,162v81.2h107.3V162H13939z"/>
			</g>
		</g>
		<g id="Rectangle_49" transform="translate(375.195 2265.701)">
			<g>
				<path class="st0" d="M13939,157h24.6c2.8,0,5,2.2,5,5v52.5c0,2.8-2.2,5-5,5h-24.6c-2.8,0-5-2.2-5-5V162
					C13934,159.2,13936.2,157,13939,157z"/>
			</g>
			<g>
				<path class="st1" d="M13963.6,219.5h-24.6c-2.8,0-5-2.2-5-5V162c0-2.8,2.2-5,5-5h24.6c2.8,0,5,2.2,5,5v52.5
					C13968.6,217.2,13966.4,219.5,13963.6,219.5z M13939,162L13939,162v52.5h24.6V162H13939z"/>
			</g>
		</g>
	</g>
</g>
</svg>
